<svg width="93" height="95" viewBox="0 0 93 95" fill="none" xmlns="http://www.w3.org/2000/svg">
    <path d="M83.1177 1.51199H9.7732C5.49429 1.51199 2.02554 4.98074 2.02554 9.25965V85.7032C2.02554 89.9821 5.49429 93.4508 9.7732 93.4508H83.1177C87.3966 93.4508 90.8653 89.9821 90.8653 85.7032V9.25965C90.8653 4.98074 87.3966 1.51199 83.1177 1.51199Z"
          fill="#00006D"/>
    <path d="M41.2732 36.3196L14.1395 46.6751C12.643 47.2462 11.9203 49.0055 12.5281 50.5979L20.2416 70.8091C20.8493 72.4015 22.5603 73.232 24.0569 72.6608L51.1907 62.3053C52.6871 61.7345 53.4098 59.9748 52.802 58.3824L45.0886 38.1714C44.4808 36.579 42.7697 35.7485 41.2732 36.3196ZM14.6904 48.1187L41.8242 37.7632C41.9242 37.725 42.0271 37.7302 42.1293 37.7164C40.6532 40.9007 35.7578 51.4561 34.0293 55.1097C33.8941 55.3959 33.6434 55.7709 33.2161 55.9336C32.7887 56.0968 32.3519 55.9842 32.0596 55.8608C28.3368 54.288 17.6529 49.6778 14.4314 48.2873C14.517 48.2295 14.5904 48.1569 14.6904 48.1187V48.1187ZM21.5982 70.2915L13.8847 50.0802C13.8307 49.9388 13.8218 49.7952 13.8084 49.6522C16.2746 50.7171 23.7289 53.9337 28.5545 55.9987C26.2672 60.5501 22.9239 68.1098 21.8135 70.6402C21.7346 70.5297 21.6491 70.4248 21.5982 70.2915ZM50.6397 60.8616L23.5059 71.2171C23.3976 71.2584 23.2858 71.2553 23.1748 71.2683C24.3225 68.6537 27.6884 61.0496 29.9404 56.5911C30.556 56.8535 31.118 57.0926 31.5605 57.2796C32.3247 57.6035 33.0873 57.637 33.767 57.3777C34.4467 57.1179 34.993 56.5849 35.3467 55.8354C35.5522 55.4011 35.8122 54.8479 36.0965 54.2415C40.7465 56.0658 48.3218 59.4934 50.9204 60.6793C50.829 60.7433 50.7481 60.8203 50.6397 60.8616V60.8616ZM51.4454 58.9004C51.4963 59.0337 51.5024 59.169 51.5174 59.3038C49.0022 58.1561 41.4734 54.7466 36.7356 52.8767C38.9584 48.1215 42.3736 40.7572 43.5036 38.319C43.5888 38.4346 43.6779 38.5476 43.7318 38.6891L51.4454 58.9004Z"
          fill="#E1000F"/>
    <path d="M54.1931 26.3045H38.1813C36.1844 26.3045 34.5657 27.9232 34.5657 29.9201V46.9649C34.5657 48.9617 36.1844 50.5805 38.1813 50.5805H54.1931C56.1899 50.5805 57.8087 48.9617 57.8087 46.9649V29.9201C57.8087 27.9232 56.1899 26.3045 54.1931 26.3045Z"
          fill="white"/>
    <path d="M41.474 19.0895H43.314V20.9296H41.474V19.0895Z" fill="white"/>
    <path d="M65.3946 41.1703H67.235V43.0104H65.3946V41.1703Z" fill="white"/>
    <path d="M48.8342 55.8907H50.6743V57.731H48.8342V55.8907Z" fill="white"/>
    <path d="M41.474 58.651H43.314V60.4913H41.474V58.651Z" fill="white"/>
    <path d="M26.7534 37.4902H28.5935V39.3303H26.7534V37.4902Z" fill="white"/>
    <path d="M48.8342 19.0895H50.6743V20.9296H48.8342V19.0895Z" fill="white"/>
    <path d="M63.5548 33.81H65.3946V35.6501H63.5548V33.81Z" fill="white"/>
    <path d="M58.9548 24.6097H60.7946V26.4498H58.9548V24.6097Z" fill="white"/>
    <path d="M31.3536 24.6097H33.1936V26.4498H31.3536V24.6097Z" fill="white"/>
    <path d="M58.9548 50.3707H60.7946V52.2107H58.9548V50.3707Z" fill="white"/>
    <path d="M31.3536 50.3707H33.1936V52.2107H31.3536V50.3707Z" fill="white"/>
    <path d="M45.9655 37.4902C45.3221 37.511 44.7062 37.7564 44.225 38.184C43.7437 38.6115 43.4274 39.1942 43.3309 39.8307C43.2345 40.4673 43.364 41.1174 43.6971 41.6683C44.0302 42.2193 44.5457 42.6362 45.1541 42.8466V44.8505H46.9942V42.8402C47.6175 42.6219 48.1416 42.1868 48.4709 41.6143C48.8002 41.0418 48.9128 40.3699 48.7881 39.7214C48.6634 39.0728 48.3097 38.4906 47.7916 38.0811C47.2735 37.6715 46.6254 37.4618 45.9655 37.4902V37.4902ZM46.9942 40.2144C46.999 40.3352 46.9799 40.4557 46.9381 40.5691C46.8963 40.6825 46.8326 40.7866 46.7506 40.8753C46.6686 40.9641 46.5699 41.0359 46.4601 41.0864C46.3503 41.1371 46.2317 41.1656 46.1109 41.1703C45.99 41.175 45.8693 41.1559 45.7558 41.1139C45.6423 41.0718 45.5382 41.0079 45.4494 40.9256C45.3157 40.8021 45.2216 40.6418 45.179 40.4648C45.1364 40.2878 45.1473 40.1022 45.2102 39.9314C45.2732 39.7607 45.3853 39.6124 45.5326 39.5054C45.6798 39.3983 45.8555 39.3374 46.0373 39.3303H46.0741C46.3119 39.3301 46.5405 39.4219 46.712 39.5865C46.8835 39.7512 46.9847 39.9759 46.9942 40.2135V40.2144Z"
          fill="#00006D"/>
    <path d="M50.6743 34.8994V33.81C50.6743 32.59 50.1896 31.4199 49.3269 30.5572C48.4642 29.6945 47.2942 29.2099 46.0741 29.2099C44.8541 29.2099 43.684 29.6945 42.8213 30.5572C41.9586 31.4199 41.474 32.59 41.474 33.81V34.8994C40.9377 35.0889 40.473 35.4396 40.1436 35.9034C39.8143 36.3671 39.6362 36.9214 39.6339 37.4902V44.8505C39.6339 45.5825 39.9247 46.2845 40.4423 46.8021C40.9599 47.3197 41.662 47.6105 42.394 47.6105H49.7542C50.4863 47.6105 51.1883 47.3197 51.7059 46.8021C52.2236 46.2845 52.5144 45.5825 52.5144 44.8505V37.4902C52.512 36.9214 52.334 36.3671 52.0046 35.9034C51.6752 35.4396 51.2106 35.0889 50.6743 34.8994ZM43.314 33.81C43.314 33.078 43.6048 32.376 44.1224 31.8583C44.6401 31.3407 45.3421 31.0499 46.0741 31.0499C46.8062 31.0499 47.5082 31.3407 48.0258 31.8583C48.5434 32.376 48.8342 33.078 48.8342 33.81V34.7301H43.314V33.81ZM50.6743 44.8505C50.6743 45.0945 50.5774 45.3284 50.4048 45.501C50.2323 45.6735 49.9982 45.7705 49.7542 45.7705H42.394C42.15 45.7705 41.9159 45.6735 41.7434 45.501C41.5709 45.3284 41.474 45.0945 41.474 44.8505V37.4902C41.474 37.2461 41.5709 37.0122 41.7434 36.8396C41.9159 36.6671 42.15 36.5701 42.394 36.5701H49.7542C49.9982 36.5701 50.2323 36.6671 50.4048 36.8396C50.5774 37.0122 50.6743 37.2461 50.6743 37.4902V44.8505Z"
          fill="#00006D"/>
    <path d="M70.9151 46.6905C70.505 46.6921 70.1011 46.7865 69.7328 46.9665L67.6167 44.8504H58.9548V43.0104H63.5548V41.1703H58.9548V39.3303H63.7718L69.004 36.7137C69.4627 37.1529 70.0587 37.4202 70.692 37.4704C71.3247 37.5205 71.9559 37.3504 72.4781 36.9889C72.9997 36.6274 73.3809 36.0966 73.5565 35.4864C73.7322 34.8762 73.6919 34.224 73.4419 33.6403C73.1919 33.0566 72.7482 32.5771 72.1852 32.283C71.6222 31.989 70.9755 31.8984 70.3537 32.0265C69.7313 32.1547 69.1729 32.4938 68.7721 32.9865C68.3718 33.4791 68.1538 34.0951 68.1549 34.7301C68.1595 34.842 68.1709 34.9536 68.189 35.064L63.3379 37.4902H58.9548V35.6501H61.7145V33.8101H58.9548V31.97H63.0156L66.0516 28.9338C66.4204 29.1141 66.8249 29.2084 67.235 29.2099C67.7809 29.2099 68.3145 29.048 68.7685 28.7447C69.222 28.4414 69.5758 28.0104 69.785 27.506C69.9937 27.0017 70.0484 26.4467 69.942 25.9113C69.8356 25.3759 69.5727 24.8841 69.1863 24.4981C68.8005 24.1121 68.3088 23.8492 67.7732 23.7427C67.2381 23.6362 66.6828 23.6909 66.1787 23.8998C65.6741 24.1087 65.2433 24.4624 64.9401 24.9163C64.6369 25.3702 64.4747 25.9039 64.4747 26.4498C64.4763 26.8596 64.5708 27.2638 64.7511 27.632L62.2537 30.1299H58.9548C58.9532 28.9103 58.4682 27.7411 57.6057 26.8787C56.7431 26.0163 55.5742 25.5312 54.3542 25.5297V23.1505L59.6123 17.8934C59.9806 18.0735 60.385 18.1679 60.7946 18.1695C61.3406 18.1695 61.8741 18.0076 62.3281 17.7043C62.7821 17.401 63.1359 16.97 63.3446 16.4656C63.5538 15.9613 63.608 15.4063 63.5016 14.8709C63.3952 14.3355 63.1323 13.8437 62.7465 13.4577C62.3601 13.0717 61.8684 12.8088 61.3333 12.7023C60.7977 12.5958 60.243 12.6504 59.7383 12.8594C59.2342 13.0682 58.8029 13.422 58.4997 13.8759C58.1966 14.3298 58.0344 14.8635 58.0344 15.4094C58.0359 15.8192 58.1304 16.2234 58.3107 16.5916L52.5144 22.3878V25.5297H50.6743V22.7697H48.8342V25.5297H46.9942V18.9202C47.608 18.7032 48.1254 18.2761 48.4548 17.7145C48.7843 17.1529 48.9046 16.4929 48.7945 15.8512C48.6844 15.2095 48.3509 14.6274 47.8532 14.2077C47.3554 13.788 46.7252 13.5578 46.0741 13.5578C45.423 13.5578 44.7929 13.788 44.2951 14.2077C43.7973 14.6274 43.4639 15.2095 43.3538 15.8512C43.2437 16.4929 43.364 17.1529 43.6934 17.7145C44.0228 18.2761 44.5402 18.7032 45.1541 18.9202V25.5297H43.314V22.7697H41.474V25.5297H39.6339V18.7086L35.6777 14.7524C35.8579 14.384 35.9523 13.9795 35.9538 13.5693C35.9538 13.0234 35.7919 12.4898 35.4886 12.0358C35.1853 11.5819 34.7542 11.2282 34.2499 11.0193C33.7456 10.8104 33.1906 10.7557 32.6552 10.8622C32.1198 10.9687 31.628 11.2316 31.2419 11.6176C30.856 12.0036 30.5931 12.4954 30.4866 13.0308C30.3801 13.5662 30.4347 14.1212 30.6436 14.6255C30.8526 15.1299 31.2063 15.5609 31.6602 15.8642C32.1141 16.1675 32.6477 16.3294 33.1936 16.3294C33.6035 16.3278 34.0077 16.2334 34.3759 16.0534L37.7938 19.4704V25.5297C36.5742 25.5312 35.405 26.0163 34.5426 26.8787C33.6802 27.7411 33.1951 28.9103 33.1936 30.1299H29.8944L27.3975 27.632C27.5775 27.2638 27.6719 26.8596 27.6734 26.4498C27.6734 25.9039 27.5116 25.3702 27.2083 24.9163C26.905 24.4624 26.4739 24.1087 25.9696 23.8998C25.4652 23.6909 24.9103 23.6362 24.3749 23.7427C23.8395 23.8492 23.3477 24.1121 22.9617 24.4981C22.5756 24.8841 22.3128 25.3759 22.2063 25.9113C22.0998 26.4467 22.1544 27.0017 22.3633 27.506C22.5723 28.0104 22.926 28.4414 23.3799 28.7447C23.8338 29.048 24.3675 29.2099 24.9134 29.2099C25.3232 29.2083 25.7274 29.1139 26.0956 28.9338L29.1317 31.97H33.1936V33.8101H27.3404L22.5212 37.8251C22.1263 37.6084 21.6837 37.4933 21.2332 37.4902C20.6873 37.4902 20.1537 37.6521 19.6998 37.9553C19.2459 38.2586 18.8921 38.6897 18.6832 39.194C18.4743 39.6984 18.4196 40.2533 18.5261 40.7887C18.6326 41.3242 18.8955 41.816 19.2815 42.202C19.6675 42.588 20.1593 42.8509 20.6948 42.9574C21.2302 43.0639 21.7851 43.0092 22.2894 42.8003C22.7938 42.5914 23.2249 42.2376 23.5281 41.7837C23.8314 41.3298 23.9933 40.7962 23.9933 40.2503C23.9939 39.881 23.9197 39.5155 23.7753 39.1757L28.0065 35.6501H33.1936V37.4902H30.4336V39.3303H33.1936V41.1703H24.9134V43.0104H33.1936V44.8504H28.1013L24.3935 50.4111C24.2613 50.3878 24.1275 50.3743 23.9933 50.3707C23.3532 50.3648 22.7307 50.5795 22.2303 50.9787C21.7299 51.3779 21.3823 51.9372 21.2459 52.5626C21.1095 53.1878 21.1926 53.8412 21.4812 54.4125C21.7698 54.9837 22.2464 55.4383 22.8307 55.6996C23.4151 55.961 24.0716 56.0131 24.6898 55.8468C25.308 55.681 25.8503 55.3076 26.2253 54.7885C26.6004 54.2699 26.7853 53.6377 26.7491 52.9989C26.713 52.3598 26.4578 51.7527 26.0266 51.2796L29.0857 46.6905H33.1936C33.1951 47.9101 33.6802 49.0793 34.5426 49.9417C35.405 50.8041 36.5742 51.2892 37.7938 51.2907V57.3499L34.3759 60.7671C34.0077 60.5868 33.6035 60.4928 33.1936 60.4913C32.6477 60.4908 32.1141 60.653 31.6602 60.9561C31.2063 61.2593 30.8526 61.6906 30.6436 62.1947C30.4347 62.6994 30.3801 63.2541 30.4866 63.7897C30.5931 64.3248 30.856 64.8171 31.2419 65.2029C31.628 65.5887 32.1198 65.8516 32.6552 65.958C33.1906 66.0649 33.7456 66.0102 34.2499 65.801C34.7542 65.5923 35.1853 65.2385 35.4886 64.7845C35.7919 64.3305 35.9538 63.7969 35.9538 63.251C35.9522 62.8414 35.8578 62.437 35.6777 62.0687L39.6339 58.1128V51.2907H41.474V56.8106H43.314V51.2907H45.1541V59.1608L50.7424 62.657C50.5922 63.3016 50.6751 63.9782 50.9765 64.5676C51.2779 65.1569 51.7782 65.6202 52.3888 65.8759C52.9993 66.1311 53.6807 66.1621 54.3119 65.9632C54.9431 65.7643 55.4833 65.348 55.8371 64.7887C56.1909 64.2293 56.3351 63.563 56.2436 62.907C56.1527 62.2516 55.8325 61.6493 55.3397 61.2077C54.8475 60.7655 54.2137 60.5125 53.5524 60.4928C52.8909 60.4732 52.2438 60.6891 51.7259 61.1008L46.9942 58.1412V51.2907H48.8342V54.0509H50.6743V51.2907H52.5144V58.651H59.1237C59.3411 59.2646 59.7678 59.7821 60.3297 60.1117C60.8912 60.4412 61.5513 60.5615 62.1928 60.4515C62.8348 60.341 63.4169 60.0078 63.8363 59.5099C64.2563 59.012 64.4861 58.3819 64.4861 57.7311C64.4861 57.0797 64.2563 56.4496 63.8363 55.9517C63.4169 55.4543 62.8348 55.1206 62.1928 55.0106C61.5513 54.9006 60.8912 55.0209 60.3297 55.3505C59.7678 55.6795 59.3411 56.197 59.1237 56.8106H54.3542V51.2907C55.5742 51.2892 56.7431 50.8041 57.6057 49.9417C58.4682 49.0793 58.9532 47.9101 58.9548 46.6905H66.8538L68.4312 48.2684C68.2509 48.6365 68.1564 49.0408 68.1549 49.4506C68.1549 49.9965 68.3171 50.5302 68.6203 50.984C68.9234 51.4379 69.3542 51.7917 69.8588 52.0006C70.363 52.2095 70.9182 52.2642 71.4533 52.1577C71.9889 52.0512 72.4807 51.7883 72.8665 51.4023C73.2528 51.0163 73.5157 50.5245 73.6221 49.9891C73.7285 49.4537 73.6738 48.8987 73.4651 48.3944C73.2559 47.89 72.9021 47.459 72.4486 47.1557C71.9946 46.8524 71.4611 46.6905 70.9151 46.6905ZM70.9151 33.8101C71.0969 33.8101 71.2751 33.864 71.4259 33.9651C71.5773 34.0662 71.6956 34.2099 71.7653 34.378C71.8345 34.5461 71.8531 34.7311 71.8174 34.9096C71.7818 35.088 71.6945 35.252 71.5654 35.3806C71.4368 35.5093 71.2731 35.5969 71.0943 35.6324C70.9161 35.668 70.7312 35.6497 70.5628 35.5801C70.395 35.5104 70.2514 35.3925 70.1502 35.2412C70.0489 35.0899 69.9952 34.912 69.9952 34.7301C69.9952 34.4861 70.0918 34.252 70.2643 34.0795C70.4368 33.907 70.6708 33.8101 70.9151 33.8101V33.8101ZM67.235 25.5297C67.4168 25.5297 67.595 25.5837 67.7458 25.6848C67.8971 25.7859 68.0154 25.9296 68.0852 26.0977C68.1544 26.2658 68.173 26.4508 68.1373 26.6293C68.1017 26.8077 68.0144 26.9717 67.8853 27.1003C67.7566 27.229 67.5929 27.3166 67.4142 27.3521C67.236 27.3876 67.0511 27.3694 66.8827 27.2998C66.7148 27.2301 66.5713 27.1122 66.47 26.9609C66.3688 26.8096 66.3151 26.6318 66.3151 26.4498C66.3151 26.2057 66.4117 25.9718 66.5842 25.7992C66.7567 25.6267 66.9907 25.5297 67.235 25.5297V25.5297ZM60.7946 14.4893C60.9764 14.4893 61.1546 14.5433 61.306 14.6444C61.4573 14.7455 61.5751 14.8892 61.6448 15.0573C61.7145 15.2254 61.7326 15.4104 61.6969 15.5889C61.6613 15.7673 61.574 15.9313 61.4454 16.0599C61.3168 16.1886 61.1525 16.2762 60.9743 16.3117C60.7956 16.3472 60.6107 16.329 60.4423 16.2594C60.2745 16.1897 60.1309 16.0718 60.0297 15.9205C59.9284 15.7692 59.8747 15.5913 59.8747 15.4094C59.8747 15.1653 59.9718 14.9314 60.1443 14.7588C60.3168 14.5863 60.5508 14.4893 60.7946 14.4893ZM46.0741 15.4094C46.2561 15.4094 46.434 15.4633 46.5852 15.5644C46.7366 15.6655 46.8545 15.8092 46.9241 15.9773C46.9938 16.1454 47.012 16.3304 46.9765 16.5089C46.941 16.6873 46.8534 16.8513 46.7247 16.9799C46.596 17.1086 46.4321 17.1962 46.2536 17.2317C46.0751 17.2673 45.8902 17.249 45.7221 17.1794C45.5539 17.1097 45.4102 16.9918 45.3092 16.8405C45.208 16.6892 45.1541 16.5114 45.1541 16.3294C45.1541 16.0854 45.251 15.8514 45.4236 15.6788C45.5961 15.5063 45.8301 15.4094 46.0741 15.4094V15.4094ZM32.2736 13.5693C32.2736 13.3873 32.3275 13.2095 32.4287 13.0581C32.5298 12.9068 32.6735 12.7889 32.8416 12.7193C33.0097 12.6497 33.1947 12.6314 33.3731 12.6669C33.5516 12.7025 33.7156 12.7901 33.8442 12.9187C33.9729 13.0474 34.0605 13.2113 34.096 13.3898C34.1315 13.5683 34.1133 13.7532 34.0437 13.9214C33.974 14.0895 33.8561 14.2332 33.7048 14.3343C33.5535 14.4353 33.3756 14.4893 33.1936 14.4893C32.9496 14.4893 32.7156 14.3924 32.5431 14.2199C32.3705 14.0473 32.2736 13.8133 32.2736 13.5693ZM23.9933 26.4498C23.9933 26.2678 24.0473 26.0899 24.1483 25.9386C24.2495 25.7873 24.3931 25.6694 24.5612 25.5998C24.7294 25.5301 24.9144 25.5119 25.0928 25.5474C25.2713 25.5829 25.4352 25.6705 25.5639 25.7992C25.6926 25.9279 25.7802 26.0918 25.8157 26.2703C25.8512 26.4488 25.833 26.6337 25.7633 26.8018C25.6937 26.97 25.5758 27.1137 25.4245 27.2147C25.2732 27.3158 25.0953 27.3698 24.9134 27.3698C24.6694 27.3698 24.4353 27.2728 24.2628 27.1003C24.0902 26.9278 23.9933 26.6938 23.9933 26.4498V26.4498ZM21.2332 41.1703C21.0512 41.1703 20.8734 41.1164 20.7221 41.0153C20.5707 40.9141 20.4528 40.7705 20.3832 40.6024C20.3136 40.4343 20.2953 40.2492 20.3309 40.0708C20.3664 39.8923 20.454 39.7284 20.5826 39.5997C20.7113 39.4711 20.8752 39.3834 21.0537 39.3479C21.2322 39.3124 21.4172 39.3306 21.5853 39.4003C21.7534 39.4699 21.8971 39.5879 21.9982 39.7391C22.0993 39.8904 22.1532 40.0683 22.1532 40.2503C22.1532 40.4943 22.0563 40.7283 21.8838 40.9008C21.7112 41.0734 21.4772 41.1703 21.2332 41.1703V41.1703ZM23.9933 54.0509C23.8113 54.0509 23.6334 53.9967 23.4822 53.896C23.3309 53.7947 23.2129 53.6511 23.1433 53.4828C23.0737 53.3149 23.0555 53.1297 23.0909 52.9513C23.1264 52.7728 23.2141 52.6089 23.3427 52.4802C23.4714 52.3515 23.6354 52.2639 23.8138 52.2284C23.9923 52.1929 24.1773 52.2111 24.3454 52.2807C24.5135 52.3504 24.6572 52.4683 24.7583 52.6196C24.8594 52.7709 24.9134 52.9488 24.9134 53.1308C24.9134 53.3748 24.8164 53.6088 24.6439 53.7813C24.4713 53.9538 24.2373 54.0509 23.9933 54.0509V54.0509ZM33.1936 64.1709C33.0117 64.1709 32.8338 64.1172 32.6825 64.016C32.5312 63.9152 32.4133 63.7711 32.3437 63.6033C32.274 63.4349 32.2558 63.25 32.2913 63.0718C32.3268 62.8931 32.4144 62.7293 32.5431 62.6007C32.6718 62.4721 32.8357 62.3843 33.0141 62.3487C33.1927 62.313 33.3776 62.3316 33.5457 62.4013C33.7139 62.4706 33.8576 62.5888 33.9586 62.7402C34.0597 62.8915 34.1137 63.0692 34.1137 63.251C34.1137 63.4953 34.0167 63.7293 33.8442 63.9018C33.6717 64.0743 33.4376 64.1709 33.1936 64.1709V64.1709ZM53.4344 62.3311C53.6163 62.3311 53.7943 62.3848 53.9457 62.486C54.097 62.5873 54.2148 62.7309 54.2845 62.8993C54.3542 63.0671 54.3723 63.252 54.3367 63.4307C54.301 63.6089 54.2137 63.7732 54.0851 63.9018C53.9565 64.0304 53.7923 64.1182 53.6139 64.1533C53.4354 64.189 53.2505 64.1709 53.0823 64.1012C52.9142 64.0314 52.7705 63.9137 52.6694 63.7623C52.5683 63.611 52.5144 63.4333 52.5144 63.251C52.5144 63.0072 52.6113 62.7732 52.7838 62.6007C52.9564 62.4282 53.1904 62.3311 53.4344 62.3311V62.3311ZM61.7145 56.8106C61.8968 56.8106 62.0745 56.8649 62.2259 56.9661C62.3772 57.0668 62.495 57.2109 62.5647 57.3788C62.6344 57.5472 62.6525 57.7321 62.6169 57.9103C62.5817 58.089 62.4939 58.2527 62.3653 58.3813C62.2367 58.5099 62.0725 58.5978 61.8943 58.6334C61.7155 58.669 61.5306 58.6504 61.3628 58.5807C61.1944 58.5115 61.0508 58.3932 60.9496 58.2419C60.8488 58.0905 60.7946 57.9129 60.7946 57.7311C60.7946 57.4867 60.8917 57.2528 61.0642 57.0802C61.2367 56.9077 61.4707 56.8106 61.7145 56.8106V56.8106ZM57.1145 46.6905C57.1145 47.4225 56.8237 48.1246 56.3061 48.6422C55.7886 49.1598 55.0866 49.4506 54.3542 49.4506H37.7938C37.0618 49.4506 36.3597 49.1598 35.8421 48.6422C35.3245 48.1246 35.0337 47.4225 35.0337 46.6905V30.1299C35.0337 29.3979 35.3245 28.6958 35.8421 28.1782C36.3597 27.6606 37.0618 27.3698 37.7938 27.3698H54.3542C55.0866 27.3698 55.7886 27.6606 56.3061 28.1782C56.8237 28.6958 57.1145 29.3979 57.1145 30.1299V46.6905ZM70.9151 50.3707C70.7333 50.3707 70.5551 50.3167 70.4038 50.2156C70.2524 50.1145 70.1347 49.9708 70.0649 49.8027C69.9952 49.6346 69.9771 49.4496 70.0128 49.2711C70.0484 49.0927 70.1357 48.9287 70.2643 48.8001C70.3929 48.6714 70.5572 48.5838 70.7354 48.5483C70.9141 48.5127 71.099 48.531 71.2674 48.6006C71.4352 48.6703 71.5788 48.7882 71.6801 48.9395C71.7813 49.0908 71.835 49.2687 71.835 49.4506C71.835 49.6946 71.7379 49.9286 71.5654 50.1012C71.3929 50.2737 71.1589 50.3707 70.9151 50.3707V50.3707Z"
          fill="white"/>
    <path d="M11.3481 84.0245H14.1534V74.1071L17.2352 79.2831H19.2108L22.2927 74.1071V84.0245H25.098V70.1955H21.6012L18.223 76.0037L14.8448 70.1955H11.3481V84.0245ZM32.9514 86.2964L37.9694 74.0676H35.3221L32.5761 80.7648L29.8498 74.0676H27.0643L31.2525 84.0047L30.6993 85.3283C30.2844 86.3359 29.672 86.6717 28.6842 86.6717C28.2496 86.6717 27.7755 86.5729 27.4594 86.4346V88.6473C27.9335 88.8448 28.4669 88.9634 29.2374 88.9634C31.1339 88.9634 32.26 87.9361 32.9514 86.2964ZM37.8346 70.1955L43.0699 84.0245H46.7444L51.9796 70.1955H48.9965L44.9071 81.0019L40.8177 70.1955H37.8346ZM57.4981 73.6725C54.2582 73.6725 52.0455 76.063 52.0455 79.046C52.0455 82.0291 54.2582 84.4196 57.4981 84.4196C60.738 84.4196 62.9506 82.0291 62.9506 79.046C62.9506 76.063 60.738 73.6725 57.4981 73.6725ZM57.5376 82.0489C55.8781 82.0489 54.6533 80.7845 54.6533 79.046C54.6533 77.3076 55.8781 76.0432 57.5376 76.0432C59.1378 76.0432 60.3429 77.3076 60.3429 79.046C60.3429 80.7648 59.1378 82.0489 57.5376 82.0489ZM65.7555 80.3894C65.7555 82.8194 66.9408 84.222 69.43 84.222C70.2597 84.222 70.8524 84.1232 71.3463 83.9059V81.7131C71.0105 81.8513 70.5561 81.9304 69.8646 81.9304C68.8768 81.9304 68.2842 81.4957 68.2842 80.3894V76.3198H71.3265V74.0676H68.2842V71.5784H65.7555V74.0676H63.8984V76.3198H65.7555V80.3894ZM82.5471 82.4045L80.7493 80.9821C80.2159 81.6933 79.2677 82.1674 78.1811 82.1674C76.6204 82.1674 75.4746 81.4167 75.2375 79.5597H82.2113C82.2903 79.2238 82.3693 78.7102 82.3693 78.157C82.3693 75.5493 80.5518 73.6725 77.786 73.6725C74.5263 73.6725 72.6693 76.1025 72.6693 79.046C72.6693 81.9501 74.6646 84.4196 78.2009 84.4196C80.0777 84.4196 81.6186 83.6491 82.5471 82.4045ZM77.7267 75.7271C79.1294 75.7271 79.8603 76.7346 79.8999 77.7422H75.3166C75.5931 76.4383 76.4426 75.7271 77.7267 75.7271Z"
          fill="white"/>
</svg>
